<?xml version="1.0" standalone="no"?><!DOCTYPE svg PUBLIC "-//W3C//DTD SVG 1.1//EN" "http://www.w3.org/Graphics/SVG/1.1/DTD/svg11.dtd"><svg t="1574585393616" class="icon" viewBox="0 0 1024 1024" version="1.1" xmlns="http://www.w3.org/2000/svg" p-id="2015" width="128" height="128" xmlns:xlink="http://www.w3.org/1999/xlink"><defs><style type="text/css"></style></defs><path d="M512 512m-512 0a512 512 0 1 0 1024 0 512 512 0 1 0-1024 0Z" fill="#263740" p-id="2016"></path><path d="M480 720h96v32H480zM296 656h288v32H296zM432 784h88v32H432zM208 208h176v32H208zM208 136h80v32H208zM320 784h88v32H320zM944 656v32h48.944c3.832-10.504 7.208-21.2 10.376-32H944zM928 464v32h95.592a514.624 514.624 0 0 0-1.904-32H928zM296 720h136v32H296zM208 272h312v32H208zM336 912h136v32H336zM512 912h40v32h-40zM208 848h176v32H208zM208 784h88v32H208zM600 976H295.536a508.248 508.248 0 0 0 89.024 32H600v-32zM416 336h56v32h-56zM736 528h88v32H736zM6.264 432H160v-32H12.44a507.76 507.76 0 0 0-6.176 32zM208 336h176v32H208zM168 464h384v32H168zM512 136h40v32h-40zM12.44 624H384v-32H6.264c1.696 10.8 3.816 21.44 6.176 32zM512 336h160v32H512z" fill="#CC584C" p-id="2017"></path><path d="M624 400h280v32H624zM776 304h203.832a517.648 517.648 0 0 0-15.544-32H776v32zM856 560h165.688c0.984-10.568 1.576-21.248 1.904-32H856v32zM640 528h72v32h-72zM296 528h312v32H296zM624 208h280v32H624zM320 136h160v32H320zM424 208h160v32H424zM600 136h160v32H600zM1017.736 592H416v32h595.56c2.36-10.56 4.48-21.2 6.176-32zM768 656h136v32H768zM156.216 880H176v-32h-50.144a516.624 516.624 0 0 0 30.36 32zM624 720h280v32H624zM872 368h131.328a504.296 504.296 0 0 0-10.376-32H872v32zM584 464h320v32H584zM584 272h144v32H584zM320 400h280v32H320zM712 336h64v32h-64zM608 656h136v32H608zM624 912v32h162.656a511.856 511.856 0 0 0 44.768-32H624zM40 496v-32H2.312a514.624 514.624 0 0 0-1.904 32H40zM624 976v32h15.44a508.328 508.328 0 0 0 89.032-32H624zM312 912H192.576a513.064 513.064 0 0 0 44.768 32H312v-32zM448 848h128v32H448zM952 720v32h12.28a515.44 515.44 0 0 0 15.544-32H952zM624 848h128v32H624zM984 400v32h33.736a513.52 513.52 0 0 0-6.168-32H984zM560 784v32h363.944a510.04 510.04 0 0 0 21.752-32H560zM208 400h80v32H208zM160 720H44.168a515.536 515.536 0 0 0 15.552 32H160v-32zM160 816v-32H78.304a513.504 513.504 0 0 0 21.752 32H160zM56 464h72v32H56zM256 656H20.672c3.16 10.8 6.536 21.504 10.376 32H256v-32zM78.304 240H160v-32h-59.944a510.04 510.04 0 0 0-21.752 32zM2.312 560H248v-32H0.408c0.328 10.752 0.92 21.432 1.904 32zM160 304v-32H59.72a517.744 517.744 0 0 0-15.552 32H160zM160 368v-32H31.056a511.176 511.176 0 0 0-10.376 32H160z" fill="#F5F5F5" p-id="2018"></path></svg>